<svg width="240" height="240" viewBox="0 0 240 240" fill="none" xmlns="http://www.w3.org/2000/svg">
  <defs>
    <radialGradient id="glow" cx="0.5" cy="0.5" r="0.65">
      <stop offset="0%" stop-color="#2FFFE1" stop-opacity="0.95"/>
      <stop offset="55%" stop-color="#2BB8FF" stop-opacity="0.6"/>
      <stop offset="100%" stop-color="#0A1F33" stop-opacity="0.1"/>
    </radialGradient>
    <linearGradient id="chip" x1="48" y1="48" x2="192" y2="192" gradientUnits="userSpaceOnUse">
      <stop offset="0%" stop-color="#42E8E0"/>
      <stop offset="50%" stop-color="#2FA8FF"/>
      <stop offset="100%" stop-color="#1254FF"/>
    </linearGradient>
    <linearGradient id="spark" x1="0" y1="0" x2="1" y2="1">
      <stop offset="0%" stop-color="#F5FEFF"/>
      <stop offset="100%" stop-color="#B4F5FF"/>
    </linearGradient>
  </defs>
  <rect x="0" y="0" width="240" height="240" rx="48" fill="#041627"/>
  <rect x="16" y="16" width="208" height="208" rx="40" fill="url(#glow)"/>
  <g filter="url(#filter0_d)">
    <rect x="54" y="54" width="132" height="132" rx="28" fill="url(#chip)" opacity="0.9"/>
    <rect x="76" y="76" width="88" height="88" rx="20" fill="#0A1F33" opacity="0.6"/>
    <circle cx="120" cy="120" r="28" fill="#0FFFE3" opacity="0.95"/>
    <circle cx="120" cy="120" r="14" fill="#0B2F4F"/>
    <path d="M120 76V58" stroke="url(#spark)" stroke-width="6" stroke-linecap="round"/>
    <path d="M120 182V164" stroke="url(#spark)" stroke-width="6" stroke-linecap="round"/>
    <path d="M76 120H58" stroke="url(#spark)" stroke-width="6" stroke-linecap="round"/>
    <path d="M182 120H164" stroke="url(#spark)" stroke-width="6" stroke-linecap="round"/>
    <path d="M150 90L162 78" stroke="url(#spark)" stroke-width="5" stroke-linecap="round"/>
    <path d="M90 150L78 162" stroke="url(#spark)" stroke-width="5" stroke-linecap="round"/>
    <path d="M150 150L162 162" stroke="url(#spark)" stroke-width="5" stroke-linecap="round"/>
    <path d="M90 90L78 78" stroke="url(#spark)" stroke-width="5" stroke-linecap="round"/>
    <circle cx="120" cy="120" r="6" fill="#FFFFFF"/>
  </g>
  <text x="120" y="208" text-anchor="middle" font-family="'Poppins', 'Segoe UI', sans-serif" font-size="20" font-weight="700" fill="#F4FEFF">Semillero Digital</text>
  <filter id="filter0_d" x="34" y="34" width="172" height="172" filterUnits="userSpaceOnUse" color-interpolation-filters="sRGB">
    <feFlood flood-opacity="0" result="BackgroundImageFix"/>
    <feColorMatrix in="SourceAlpha" type="matrix" values="0 0 0 0 0 0 0 0 0 0 0 0 0 0 0 0 0 0 127 0" result="hardAlpha"/>
    <feOffset dy="8"/>
    <feGaussianBlur stdDeviation="12"/>
    <feColorMatrix type="matrix" values="0 0 0 0 0.12 0 0 0 0 0.45 0 0 0 0 0.65 0 0 0 0.35 0"/>
    <feBlend mode="normal" in2="BackgroundImageFix" result="effect1_dropShadow"/>
    <feBlend mode="normal" in="SourceGraphic" in2="effect1_dropShadow" result="shape"/>
  </filter>
</svg>
