<svg width="64" height="64" viewBox="0 0 64 64" fill="none" xmlns="http://www.w3.org/2000/svg">
  <defs>
    <radialGradient id="whatsappGlow" cx="0.5" cy="0.5" r="0.6">
      <stop offset="0%" stop-color="#4CFFBA"/>
      <stop offset="60%" stop-color="#00D166"/>
      <stop offset="100%" stop-color="#006C3B"/>
    </radialGradient>
  </defs>
  <circle cx="32" cy="32" r="30" fill="url(#whatsappGlow)"/>
  <path d="M32 12C21.523 12 13 20.523 13 31c0 3.172.847 6.24 2.453 8.932L13 52l12.436-2.4C28.159 50.528 30.058 51 32 51c10.477 0 19-8.523 19-19S42.477 12 32 12Z" fill="white" fill-opacity="0.15"/>
  <path d="M32.003 18.5c-6.908 0-12.505 5.57-12.505 12.436 0 2.446.7 4.74 2.03 6.768l-1.33 4.88 5.018-1.316c1.97 1.255 4.256 1.92 6.63 1.92 6.908 0 12.505-5.57 12.505-12.436 0-6.867-5.597-12.436-12.505-12.436Zm7.397 16.888c-.312.882-1.82 1.703-2.51 1.813-.64.102-1.466.146-2.365-.148-.546-.178-1.242-.404-2.146-.793-3.77-1.63-6.221-5.402-6.415-5.652-.194-.25-1.53-2.042-1.53-3.894 0-1.852.973-2.765 1.318-3.135.346-.37.756-.463 1.008-.463.252 0 .504 0 .727.01.234.01.546-.088.855.651.312.752 1.064 2.591 1.156 2.777.092.185.154.404.03.655-.126.25-.19.404-.378.62-.194.222-.41.494-.586.664-.194.185-.398.387-.17.758.228.37 1.01 1.663 2.17 2.684 1.494 1.324 2.753 1.735 3.124 1.92.378.185.6.17.818-.112.218-.281.942-1.097 1.195-1.473.252-.37.504-.3.855-.178.352.12 2.227 1.023 2.608 1.21.38.185.63.277.724.432.092.148.092.955-.22 1.837Z" fill="#FFFFFF"/>
</svg>
