<svg xmlns="http://www.w3.org/2000/svg" viewBox="0 0 160 160" role="img" aria-labelledby="title">
  <title>Instituto Colombiano de Bienestar Familiar</title>
  <defs>
    <linearGradient id="icbfLeaf" x1="0%" y1="0%" x2="100%" y2="100%">
      <stop offset="0%" stop-color="#2bb673" />
      <stop offset="100%" stop-color="#0c7a3c" />
    </linearGradient>
  </defs>
  <g fill="none" stroke-width="0">
    <path
      fill="url(#icbfLeaf)"
      d="M21 64c0-24.6 21.4-45 59-45s59 20.4 59 45c0 28.7-23.8 46.6-51.3 67.2-4.2 3.1-11.2 3.1-15.4 0C44.8 110.6 21 92.7 21 64z"
    />
    <path
      fill="#f6fbf5"
      d="M73.8 89.4c-7.6-4.9-12.3-13.1-12.3-22.1 0-14.7 11.8-26.6 26.5-26.6s26.5 11.9 26.5 26.6c0 9.1-4.7 17.2-12.3 22.1l-14.2 9.1z"
    />
    <circle cx="88" cy="59" r="11" fill="#1d3b2b" />
    <circle cx="68" cy="62" r="7" fill="#1d3b2b" />
    <circle cx="108" cy="62" r="7" fill="#1d3b2b" />
  </g>
</svg>
