<svg xmlns="http://www.w3.org/2000/svg" width="360" height="120" viewBox="0 0 360 120" role="img" aria-labelledby="title">
  <title>Ministerio del Interior de Colombia</title>
  <defs>
    <linearGradient id="badge" x1="0%" y1="0%" x2="0%" y2="100%">
      <stop offset="0%" stop-color="#751144" />
      <stop offset="100%" stop-color="#4d0b2d" />
    </linearGradient>
    <linearGradient id="panel" x1="0%" y1="0%" x2="100%" y2="100%">
      <stop offset="0%" stop-color="#8d1c53" />
      <stop offset="100%" stop-color="#5f1036" />
    </linearGradient>
    <linearGradient id="sheen" x1="0%" y1="0%" x2="0%" y2="100%">
      <stop offset="0%" stop-color="rgba(255,255,255,0.38)" />
      <stop offset="45%" stop-color="rgba(255,255,255,0)" />
    </linearGradient>
  </defs>
  <rect x="2" y="2" width="356" height="116" rx="26" fill="url(#panel)" stroke="#36081f" stroke-width="3" />
  <rect x="10" y="10" width="340" height="100" rx="22" fill="none" stroke="rgba(255,255,255,0.24)" stroke-width="2" />
  <g transform="translate(35 60)">
    <circle cx="0" cy="0" r="40" fill="#fff" />
    <circle cx="0" cy="0" r="34" fill="url(#badge)" />
    <circle cx="0" cy="0" r="26" fill="#fff2d9" />
    <path d="M0 -16 L9 -4 L6 8 L0 14 L-6 8 L-9 -4 Z" fill="#751144" />
    <text text-anchor="middle" font-family="'Montserrat', 'Poppins', 'Segoe UI', sans-serif" font-size="7" font-weight="600" fill="#fff" transform="translate(0 52)">
      REPÚBLICA DE COLOMBIA
    </text>
  </g>
  <rect x="10" y="10" width="200" height="50" rx="22" fill="url(#sheen)" />
  <g transform="translate(110 58)">
    <text font-family="'Poppins', 'Segoe UI', sans-serif" font-weight="700" font-size="32" fill="#f7eaf1">
      <tspan x="0" y="0">MinInterior</tspan>
    </text>
    <text font-family="'Poppins', 'Segoe UI', sans-serif" font-weight="500" font-size="16" fill="rgba(255,255,255,0.82)">
      <tspan x="0" y="26">Ministerio del Interior</tspan>
    </text>
  </g>
</svg>
