<svg xmlns="http://www.w3.org/2000/svg" viewBox="0 0 240 60" role="img" aria-label="Facopec">
  <title>Facopec</title>
  <rect width="240" height="60" rx="12" fill="#0d9488" />
  <path
    d="M56 42h-8.5l-5.7-9.6H34V42h-6.8V18h12.9c6.6 0 10.5 3.4 10.5 8.7 0 4.2-2.3 7-6.1 8.2L56 42Zm-22-14.6h5.6c2.7 0 4.3-1.3 4.3-3.6s-1.6-3.6-4.3-3.6h-5.6v7.2Z"
    fill="#ecfeff"
  />
  <path
    d="M83.1 42.6c-8.8 0-15.2-6-15.2-15.4S74.3 12 83.1 12s15.2 6 15.2 15.4-6.4 15.2-15.2 15.2Zm0-24.1c-5.1 0-8.7 3.7-8.7 8.9 0 5.3 3.6 8.9 8.7 8.9s8.7-3.7 8.7-8.9c0-5.2-3.6-8.9-8.7-8.9Z"
    fill="#ecfeff"
  />
  <path
    d="M110.2 42.6c-5.9 0-10.2-3.3-11.1-8.5l6.1-1.7c.6 3.2 2.5 4.9 5.1 4.9 2.6 0 4.3-1.5 4.3-3.7v-.1c0-2.4-1.9-3.6-5.2-3.6h-2.8l-1.2-5.1 6.7-6.7H98.2V18h17.7v5.6l-6.1 5.9c4.1.8 7 3.3 7 7.9v.1c0 5.2-3.8 8.9-9.6 8.9Z"
    fill="#ecfeff"
  />
  <path
    d="M132.3 42.6c-8.5 0-15-6.2-15-15.4S123.8 12 132.3 12c5.6 0 9.4 2.4 12 6l-4.9 4c-1.9-2.3-4.2-3.7-7.1-3.7-4.5 0-7.8 3.6-7.8 8.9s3.4 8.9 8 8.9c3 0 5.2-1.4 7.3-3.8l4.9 3.9c-2.9 3.9-6.7 6.4-12.4 6.4Z"
    fill="#ecfeff"
  />
  <path
    d="M162.3 42.6c-7.8 0-13.6-6-13.6-15.4S154.5 12 162.3 12s13.6 6 13.6 15.4-5.8 15.2-13.6 15.2Zm0-24.1c-4.6 0-7.7 3.7-7.7 8.9 0 5.3 3.1 8.9 7.7 8.9s7.7-3.7 7.7-8.9c0-5.2-3.1-8.9-7.7-8.9Z"
    fill="#ecfeff"
  />
  <path
    d="M207.7 18.1c-3.9 0-6.4 1.7-8.2 4.3V18H193v33.1h6.5V39c1.8 2.5 4.3 3.9 7.8 3.9 6.2 0 11.7-4.9 11.7-12.9 0-8.1-5.5-11.9-11.3-11.9Zm-2.4 19.1c-3.6 0-6.1-2.9-6.1-7.1s2.5-7.1 6.1-7.1c3.5 0 6.1 2.9 6.1 7.1s-2.5 7.1-6.1 7.1Z"
    fill="#ecfeff"
  />
</svg>
